<?xml version="1.0" standalone="no"?>
<!DOCTYPE svg PUBLIC "-//W3C//DTD SVG 1.1//EN" "http://www.w3.org/Graphics/SVG/1.1/DTD/svg11.dtd">
<svg version="1.1" xmlns="http://www.w3.org/2000/svg" viewBox="0 0 3840 1376" preserveAspectRatio="xMidYMid meet">

<g transform="translate(0,1376) scale(0.1,-0.1)" fill="#FFFFFF" stroke="none" fill-rule="evenodd">
<path d="M19208 9870 c-32 -35 -38 -47 -38 -86 0 -51 31 -247 38 -240 2 3 -3
56 -12 119 -10 63 -15 125 -12 139 7 39 29 69 46 63 8 -4 11 -3 7 1 -4 4 -2
13 4 21 10 11 15 11 27 1 11 -9 13 -9 9 -1 -4 7 0 13 10 16 11 3 6 5 -11 6
-22 1 -39 -9 -68 -39z"/>
<path d="M19350 9876 c0 -2 7 -6 15 -10 8 -3 15 -1 15 4 0 6 -7 10 -15 10 -8
0 -15 -2 -15 -4z"/>
<path d="M19382 9830 c0 -14 4 -36 8 -50 l8 -25 0 25 c0 14 -4 36 -8 50 l-8
25 0 -25z"/>
<path d="M19402 9725 c0 -16 8 -68 18 -115 24 -111 24 -72 1 50 -11 52 -19 82
-19 65z"/>
<path d="M24580 9670 c0 -5 5 -10 11 -10 5 0 7 5 4 10 -3 6 -8 10 -11 10 -2 0
-4 -4 -4 -10z"/>
<path d="M24625 9670 c-3 -5 -1 -10 4 -10 6 0 11 5 11 10 0 6 -2 10 -4 10 -3
0 -8 -4 -11 -10z"/>
<path d="M24528 9658 c-9 -7 -18 -25 -22 -40 -5 -21 -12 -28 -30 -28 -42 0
-56 -11 -56 -42 0 -20 -10 -38 -31 -57 -25 -24 -28 -29 -14 -35 10 -3 14 -2
10 5 -4 6 2 13 14 16 14 4 22 16 27 42 9 56 11 59 38 59 30 0 56 18 56 40 0 8
7 24 17 34 19 21 14 24 -9 6z"/>
<path d="M24960 9650 c0 -6 5 -10 11 -10 5 0 7 -5 4 -10 -10 -16 23 -60 43
-59 14 0 14 2 2 6 -20 8 -30 24 -30 49 0 12 -7 24 -15 28 -8 3 -15 1 -15 -4z"/>
<path d="M11345 9620 l-269 -5 3 -50 c4 -64 11 -72 11 -12 0 41 3 47 24 53 34
8 678 0 699 -10 9 -4 17 -14 17 -22 0 -8 5 -14 10 -14 6 0 10 -4 10 -10 0 -5
9 -20 19 -32 11 -13 29 -34 40 -48 15 -18 20 -21 21 -9 0 8 -16 30 -35 49 -20
19 -41 51 -47 72 -7 23 -18 38 -27 39 -96 3 -252 3 -476 -1z"/>
<path d="M13734 9621 c-2 -2 -3 -617 -2 -1365 l3 -1361 5 1320 c3 726 8 1313
12 1305 5 -11 7 -10 7 5 1 11 8 30 16 41 8 12 11 24 8 28 -3 3 -4 7 -2 8 2 1
92 5 199 8 l195 5 -218 5 c-120 3 -221 3 -223 1z"/>
<path d="M14373 9609 c16 -9 17 -92 19 -1482 l3 -1472 5 1275 c3 701 4 1368 2
1483 -3 206 -3 207 -25 207 -20 -1 -20 -2 -4 -11z"/>
<path d="M25047 9549 c4 -13 9 -17 15 -11 11 11 3 32 -12 32 -4 0 -6 -9 -3
-21z"/>
<path d="M18008 9535 c-32 -18 -68 -74 -68 -107 0 -13 17 -53 39 -89 58 -97
199 -369 259 -500 61 -133 110 -195 188 -240 52 -29 61 -31 126 -27 93 7 139
40 192 137 21 40 36 75 32 78 -3 3 -15 -16 -26 -43 -26 -60 -68 -116 -81 -108
-5 3 -8 0 -7 -7 5 -22 -49 -40 -125 -41 -64 0 -79 3 -118 27 -49 31 -61 44
-52 59 3 5 1 6 -4 3 -15 -10 -37 20 -74 98 -18 39 -37 72 -41 73 -4 2 -8 14
-8 27 0 13 -4 25 -9 27 -5 2 -37 61 -71 132 -34 71 -68 136 -76 144 -8 8 -13
21 -10 29 3 8 1 11 -4 8 -9 -6 -14 8 -11 28 0 4 -4 7 -10 7 -6 0 -8 7 -5 17 4
10 4 14 0 10 -4 -4 -13 3 -20 16 -21 36 -38 78 -36 89 1 4 -5 5 -13 2 -12 -5
-15 3 -15 41 0 32 3 44 12 39 7 -5 8 -3 3 6 -6 10 -4 12 8 7 9 -3 16 -3 16 1
-3 20 2 32 15 32 8 0 16 5 18 11 5 15 40 18 63 6 11 -6 23 -10 27 -9 4 1 21
-19 39 -43 36 -50 49 -59 24 -17 -52 87 -111 113 -177 77z"/>
<path d="M19211 9510 c-1 -31 61 -371 67 -365 2 2 -8 73 -23 157 -37 209 -43
238 -44 208z"/>
<path d="M19442 9495 c0 -16 4 -43 8 -60 11 -42 11 -1 1 50 -7 34 -9 35 -9 10z"/>
<path d="M25062 9494 c2 -15 9 -29 16 -32 11 -3 12 0 3 16 -6 10 -8 22 -5 25
3 3 0 8 -6 12 -8 5 -10 -2 -8 -21z"/>
<path d="M25090 9438 c-12 -8 -12 -9 3 -4 14 4 17 -1 17 -32 0 -24 3 -32 9
-24 9 14 3 59 -8 66 -4 3 -13 0 -21 -6z"/>
<path d="M11930 9432 c0 -5 9 -17 20 -27 11 -10 20 -23 20 -30 0 -6 20 -39 45
-73 25 -34 45 -69 45 -77 0 -8 5 -15 11 -15 19 0 11 15 -103 182 -10 15 -18
32 -18 38 0 5 -4 10 -10 10 -5 0 -10 -4 -10 -8z"/>
<path d="M24348 9394 c-2 -62 3 -148 10 -161 4 -6 6 34 5 89 -3 101 -12 146
-15 72z"/>
<path d="M18251 9325 c28 -55 56 -104 61 -110 14 -13 -78 166 -97 191 -9 10 8
-26 36 -81z"/>
<path d="M19461 9384 c0 -11 3 -14 6 -6 3 7 2 16 -1 19 -3 4 -6 -2 -5 -13z"/>
<path d="M18773 9345 c-35 -15 -89 -67 -108 -105 -16 -32 -88 -300 -82 -306 2
-2 16 40 32 93 15 54 34 121 43 148 9 28 16 53 14 57 -1 4 20 30 48 58 45 46
52 50 97 50 35 0 44 3 33 10 -20 13 -39 12 -77 -5z"/>
<path d="M19471 9335 c0 -11 7 -65 15 -120 9 -55 18 -159 21 -232 5 -131 5
-132 -21 -157 -35 -35 -116 -36 -211 -1 -84 30 -99 26 -18 -6 79 -30 179 -37
224 -14 19 10 37 23 41 29 16 23 7 198 -17 346 -26 157 -33 191 -34 155z"/>
<path d="M25121 9334 c0 -11 3 -14 6 -6 3 7 2 16 -1 19 -3 4 -6 -2 -5 -13z"/>
<path d="M18880 9333 c0 -4 17 -16 39 -26 21 -10 51 -30 66 -43 36 -31 47 -31
15 0 -31 29 -120 81 -120 69z"/>
<path d="M25110 9261 c0 -17 2 -31 4 -31 8 0 13 51 5 56 -5 3 -9 -9 -9 -25z"/>
<path d="M19045 9220 c10 -11 20 -20 23 -20 3 0 -3 9 -13 20 -10 11 -20 20
-23 20 -3 0 3 -9 13 -20z"/>
<path d="M25087 9191 c-9 -16 -17 -37 -17 -46 0 -9 -4 -14 -8 -11 -5 3 -16 -4
-26 -15 -17 -20 -16 -20 15 -17 29 3 32 6 34 41 1 22 8 43 15 47 7 4 11 13 9
19 -3 7 -12 -1 -22 -18z"/>
<path d="M24371 9200 c0 -8 6 -24 14 -34 19 -25 19 -9 0 24 -8 14 -14 19 -14
10z"/>
<path d="M18320 9195 c0 -2 9 -19 20 -37 23 -39 27 -30 5 12 -14 27 -25 38
-25 25z"/>
<path d="M12106 9172 c-3 -5 4 -18 16 -28 21 -19 21 -19 8 6 -17 33 -17 33
-24 22z"/>
<path d="M24405 9131 c-7 -13 14 -59 31 -65 11 -4 11 -1 1 17 -6 12 -16 25
-21 28 -5 4 -5 12 -2 18 4 6 5 11 2 11 -3 0 -7 -4 -11 -9z"/>
<path d="M12154 9095 c12 -28 26 -33 26 -10 0 8 -9 19 -19 24 -17 10 -18 9 -7
-14z"/>
<path d="M18360 9114 c0 -5 7 -18 15 -28 8 -11 15 -16 15 -10 0 5 -7 18 -15
28 -8 11 -15 16 -15 10z"/>
<path d="M25010 9079 c0 -5 5 -7 10 -4 6 3 10 8 10 11 0 2 -4 4 -10 4 -5 0
-10 -5 -10 -11z"/>
<path d="M11085 7900 c0 -641 1 -903 2 -583 2 321 2 845 0 1165 -1 321 -2 59
-2 -582z"/>
<path d="M12191 9045 c9 -11 22 -35 29 -53 19 -48 30 -48 15 0 -7 24 -22 48
-36 57 -23 15 -24 15 -8 -4z"/>
<path d="M18391 9055 c0 -5 8 -26 19 -45 11 -19 19 -30 19 -25 0 6 -8 26 -19
45 -11 19 -19 31 -19 25z"/>
<path d="M18883 9054 c14 -23 187 -144 187 -131 0 3 -24 20 -52 38 -29 18 -55
36 -58 39 -12 14 -83 64 -77 54z"/>
<path d="M24460 9057 c0 -20 37 -60 72 -77 25 -12 35 -14 28 -6 -6 8 -23 19
-38 25 -15 7 -35 24 -45 39 -9 15 -17 23 -17 19z"/>
<path d="M18841 9024 c0 -11 3 -14 6 -6 3 7 2 16 -1 19 -3 4 -6 -2 -5 -13z"/>
<path d="M24992 9028 c-6 -6 -25 -11 -42 -10 -16 0 -30 -3 -30 -7 0 -11 72 -3
84 9 5 5 7 12 5 15 -3 2 -10 0 -17 -7z"/>
<path d="M24896 8995 c4 -8 8 -15 10 -15 2 0 4 7 4 15 0 8 -4 15 -10 15 -5 0
-7 -7 -4 -15z"/>
<path d="M18827 8983 c-4 -3 -7 -16 -7 -28 0 -12 -9 -50 -21 -84 -11 -35 -18
-65 -16 -68 7 -6 35 81 46 140 9 49 9 51 -2 40z"/>
<path d="M18436 8957 c3 -10 9 -15 12 -12 3 3 0 11 -7 18 -10 9 -11 8 -5 -6z"/>
<path d="M24845 8954 c-31 -9 -83 -13 -137 -12 -48 2 -83 -1 -79 -6 9 -8 157
-10 201 -2 32 5 80 24 80 31 0 7 -6 6 -65 -11z"/>
<path d="M12270 8940 c0 -12 6 -28 14 -36 8 -7 16 -19 19 -26 2 -7 8 -10 12
-6 5 5 1 16 -8 26 -10 10 -17 26 -17 35 0 9 -4 19 -10 22 -5 3 -10 -3 -10 -15z"/>
<path d="M24585 8950 c3 -5 10 -10 16 -10 5 0 9 5 9 10 0 6 -7 10 -16 10 -8 0
-12 -4 -9 -10z"/>
<path d="M18567 8913 c-4 -3 -7 -13 -7 -22 1 -13 3 -13 11 2 11 19 8 33 -4 20z"/>
<path d="M19080 8915 c0 -2 18 -14 40 -25 22 -11 40 -18 40 -15 0 2 -18 14
-40 25 -22 11 -40 18 -40 15z"/>
<path d="M18476 8867 c3 -10 9 -15 12 -12 3 3 0 11 -7 18 -10 9 -11 8 -5 -6z"/>
<path d="M18551 8854 c0 -11 3 -14 6 -6 3 7 2 16 -1 19 -3 4 -6 -2 -5 -13z"/>
<path d="M12343 8832 c10 -10 17 -25 17 -33 0 -20 29 -59 43 -59 9 0 9 2 1 8
-13 8 -29 52 -25 67 3 10 -27 35 -42 35 -6 0 -3 -8 6 -18z"/>
<path d="M12428 8707 c4 -40 45 -102 62 -92 4 2 6 -11 5 -29 0 -24 4 -32 17
-33 10 -1 18 2 18 8 0 5 -4 9 -9 9 -6 0 -11 15 -13 33 -2 21 -8 32 -19 32 -31
0 -50 26 -43 60 3 20 1 35 -8 42 -11 10 -13 4 -10 -30z"/>
<path d="M11741 8554 c0 -11 3 -14 6 -6 3 7 2 16 -1 19 -3 4 -6 -2 -5 -13z"/>
<path d="M12548 8524 c3 -17 8 -22 15 -15 11 11 3 41 -11 41 -5 0 -7 -12 -4
-26z"/>
<path d="M11790 8525 c0 -2 11 -16 25 -31 14 -15 25 -31 25 -36 0 -5 4 -14 10
-21 35 -43 80 -109 80 -117 0 -6 3 -10 8 -10 4 -1 25 -30 47 -66 22 -36 55
-84 72 -107 18 -23 33 -48 33 -55 0 -7 9 -23 21 -35 11 -12 28 -35 36 -52 9
-16 22 -37 29 -45 8 -8 35 -46 60 -85 64 -96 94 -131 94 -110 0 10 5 13 13 9
7 -4 9 -3 4 2 -8 9 -12 10 -38 13 -8 1 -8 6 1 16 11 13 10 14 -3 10 -8 -4 -18
-2 -21 3 -3 6 1 13 10 16 13 5 14 9 4 21 -7 8 -17 12 -22 9 -10 -6 -45 35 -40
49 1 4 -4 7 -12 7 -9 0 -13 8 -10 23 2 12 2 16 -2 9 -4 -9 -11 -5 -25 12 -22
28 -24 40 -6 31 6 -4 0 3 -16 15 -15 12 -25 25 -22 30 3 4 -1 10 -9 13 -8 3
-26 30 -41 59 -15 29 -30 55 -34 58 -3 3 -22 30 -41 60 -19 30 -40 62 -47 70
-25 28 -115 155 -136 192 -19 32 -47 58 -47 43z m505 -685 c3 -5 1 -10 -4 -10
-6 0 -11 5 -11 10 0 6 2 10 4 10 3 0 8 -4 11 -10z"/>
<path d="M16113 8503 c9 -2 23 -2 30 0 6 3 -1 5 -18 5 -16 0 -22 -2 -12 -5z"/>
<path d="M16168 8503 c7 -3 16 -2 19 1 4 3 -2 6 -13 5 -11 0 -14 -3 -6 -6z"/>
<path d="M16265 8500 c3 -5 16 -10 28 -9 21 0 21 1 2 9 -28 12 -37 12 -30 0z"/>
<path d="M16025 8489 c5 -7 -3 -9 -24 -6 -18 3 -31 1 -31 -5 0 -7 21 -9 55 -6
30 3 55 1 55 -4 0 -4 16 -8 35 -8 19 0 35 4 35 8 0 5 -14 9 -32 9 -18 0 -34 5
-36 11 -2 7 -17 12 -33 12 -19 0 -28 -4 -24 -11z"/>
<path d="M12601 8446 c19 -26 49 -64 66 -83 18 -19 31 -39 28 -43 -3 -4 4 -19
15 -31 11 -13 19 -19 20 -13 0 6 -3 14 -7 18 -4 3 -8 15 -10 25 -1 11 -15 32
-30 49 -16 16 -37 44 -48 62 -11 18 -31 40 -44 49 -21 14 -20 10 10 -33z"/>
<path d="M16235 8472 c6 -5 66 -13 135 -16 93 -5 120 -4 107 5 -24 14 -256 25
-242 11z"/>
<path d="M21065 8468 c-33 -4 -71 -6 -85 -3 -18 4 -21 3 -11 -4 11 -7 8 -10
-15 -14 -16 -2 -11 -2 11 0 22 2 108 6 191 9 122 5 151 4 153 -7 1 -8 5 -43
10 -79 l8 -65 1 83 c2 59 -1 82 -10 83 -68 6 -205 4 -253 -3z"/>
<path d="M22540 8470 c0 -5 5 -10 11 -10 5 0 7 5 4 10 -3 6 -8 10 -11 10 -2 0
-4 -4 -4 -10z"/>
<path d="M22777 8468 c-7 -4 9 -8 36 -8 26 0 47 2 47 4 0 8 -71 12 -83 4z"/>
<path d="M22618 8463 c17 -2 47 -2 65 0 17 2 3 4 -33 4 -36 0 -50 -2 -32 -4z"/>
<path d="M22728 8463 c6 -2 18 -2 25 0 6 3 1 5 -13 5 -14 0 -19 -2 -12 -5z"/>
<path d="M23040 8460 c0 -5 5 -10 11 -10 5 0 7 5 4 10 -3 6 -8 10 -11 10 -2 0
-4 -4 -4 -10z"/>
<path d="M15963 8453 c9 -2 25 -2 35 0 9 3 1 5 -18 5 -19 0 -27 -2 -17 -5z"/>
<path d="M22275 8450 c-3 -5 -1 -10 4 -10 6 0 11 5 11 10 0 6 -2 10 -4 10 -3
0 -8 -4 -11 -10z"/>
<path d="M15818 8443 c7 -3 16 -2 19 1 4 3 -2 6 -13 5 -11 0 -14 -3 -6 -6z"/>
<path d="M16650 8430 c0 -7 6 -10 12 -8 7 3 19 -1 26 -9 7 -7 23 -13 35 -12
20 1 20 2 -3 9 -19 6 -21 8 -6 9 27 1 17 7 -26 15 -26 5 -38 3 -38 -4z"/>
<path d="M19855 8430 c-4 -6 6 -10 22 -10 22 0 25 2 13 10 -19 12 -27 12 -35
0z"/>
<path d="M24493 8432 l-73 -3 2 -182 3 -182 2 178 3 177 300 -2 300 -3 4 -180
c2 -99 5 -695 7 -1325 1 -730 5 -1103 10 -1030 10 132 7 2535 -2 2545 -7 7
-431 12 -556 7z"/>
<path d="M20328 8423 c7 -3 16 -2 19 1 4 3 -2 6 -13 5 -11 0 -14 -3 -6 -6z"/>
<path d="M23255 8400 c-3 -5 -1 -10 4 -10 6 0 11 5 11 10 0 6 -2 10 -4 10 -3
0 -8 -4 -11 -10z"/>
<path d="M15640 8384 c-19 -7 -43 -13 -52 -13 -9 -1 -25 -12 -36 -25 -10 -13
-37 -29 -61 -36 -33 -9 -45 -18 -58 -45 -9 -19 -24 -35 -33 -35 -9 0 -31 -13
-50 -28 -30 -26 -32 -29 -15 -36 11 -4 16 -4 12 0 -11 12 13 33 31 27 14 -4
14 -3 3 5 -12 9 -10 12 11 17 25 6 71 49 62 57 -4 5 23 19 74 38 17 7 32 18
32 24 0 13 98 48 112 40 4 -3 8 2 8 10 0 9 -1 15 -2 15 -2 -1 -19 -7 -38 -15z"/>
<path d="M16758 8393 c7 -3 16 -2 19 1 4 3 -2 6 -13 5 -11 0 -14 -3 -6 -6z"/>
<path d="M19842 8182 l3 -217 2 179 c3 150 6 183 20 198 9 10 11 18 5 18 -6 0
-13 -6 -15 -12 -3 -7 -6 -3 -6 9 -1 16 3 21 14 17 8 -4 15 -2 15 4 0 5 -9 12
-20 15 -20 5 -20 1 -18 -211z"/>
<path d="M20340 8397 c-3 -3 -3 -43 -1 -89 2 -48 6 -75 10 -63 8 21 -1 160 -9
152z"/>
<path d="M21980 8390 c-13 -8 -13 -10 2 -10 9 0 20 5 23 10 8 13 -5 13 -25 0z"/>
<path d="M23340 8396 c0 -2 7 -7 16 -10 8 -3 12 -2 9 4 -6 10 -25 14 -25 6z"/>
<path d="M20733 8383 c9 -2 23 -2 30 0 6 3 -1 5 -18 5 -16 0 -22 -2 -12 -5z"/>
<path d="M24971 8374 c0 -11 3 -14 6 -6 3 7 2 16 -1 19 -3 4 -6 -2 -5 -13z"/>
<path d="M16870 8351 c0 -6 5 -13 10 -16 6 -3 10 1 10 9 0 9 -4 16 -10 16 -5
0 -10 -4 -10 -9z"/>
<path d="M20665 8333 c-31 -7 -40 -21 -11 -16 15 3 29 9 32 14 3 5 4 8 2 8 -2
-1 -12 -3 -23 -6z"/>
<path d="M21790 8317 c0 -4 -4 -5 -10 -2 -5 3 -10 1 -10 -5 0 -7 7 -9 16 -6 9
3 22 6 30 6 8 0 14 4 14 9 0 6 -9 9 -20 8 -11 -1 -20 -5 -20 -10z"/>
<path d="M23414 8308 c-3 -4 6 -8 20 -8 16 0 26 -6 26 -14 0 -8 5 -18 12 -22
8 -5 9 -2 5 9 -3 10 -2 17 4 17 6 0 8 4 5 9 -8 12 -66 20 -72 9z"/>
<path d="M16948 8299 c13 -5 21 -13 17 -19 -3 -6 1 -7 10 -4 10 4 15 2 13 -6
-2 -6 8 -18 22 -27 23 -14 24 -14 6 1 -11 9 -17 19 -13 23 8 7 -47 43 -66 42
-6 0 -2 -4 11 -10z"/>
<path d="M20559 8283 l-24 -28 25 21 c14 12 32 24 40 27 13 5 13 6 -1 6 -8 1
-26 -11 -40 -26z"/>
<path d="M12749 8267 c10 -13 11 -21 3 -30 -9 -10 -3 -19 27 -38 31 -19 39
-30 39 -52 -1 -15 4 -33 10 -39 8 -8 10 -1 5 28 -4 27 -15 47 -35 63 -20 16
-28 30 -25 42 4 13 -2 23 -16 31 -20 10 -21 10 -8 -5z"/>
<path d="M21688 8258 c-2 -7 -1 -29 2 -48 6 -35 6 -34 11 13 4 43 -3 64 -13
35z"/>
<path d="M11744 8100 c0 -91 2 -128 3 -82 2 45 2 119 0 165 -1 45 -3 8 -3 -83z"/>
<path d="M20505 8240 c-3 -5 -2 -10 4 -10 5 0 13 5 16 10 3 6 2 10 -4 10 -5 0
-13 -4 -16 -10z"/>
<path d="M17065 8221 c-3 -5 -1 -12 5 -16 5 -3 10 1 10 9 0 18 -6 21 -15 7z"/>
<path d="M20445 8193 c-19 -21 -32 -39 -30 -42 3 -2 6 -2 8 0 1 2 18 21 36 42
19 20 32 37 27 37 -4 0 -22 -17 -41 -37z"/>
<path d="M23552 8213 c8 -10 18 -26 21 -35 6 -16 27 -26 27 -13 0 13 -33 54
-48 60 -14 5 -14 4 0 -12z"/>
<path d="M21323 8145 c0 -27 2 -38 4 -22 2 15 2 37 0 50 -2 12 -4 0 -4 -28z"/>
<path d="M15282 8134 c-18 -15 -32 -31 -32 -35 0 -4 12 3 26 16 15 14 36 25
46 25 11 0 16 5 13 10 -9 15 -18 12 -53 -16z"/>
<path d="M17141 8144 c0 -11 3 -14 6 -6 3 7 2 16 -1 19 -3 4 -6 -2 -5 -13z"/>
<path d="M23619 8132 c16 -30 33 -38 22 -11 -4 13 -14 25 -20 27 -10 3 -10 0
-2 -16z"/>
<path d="M20370 8110 c-9 -6 -10 -10 -3 -10 6 0 15 5 18 10 8 12 4 12 -15 0z"/>
<path d="M17205 8100 c3 -5 11 -10 16 -10 6 0 7 5 4 10 -3 6 -11 10 -16 10 -6
0 -7 -4 -4 -10z"/>
<path d="M12872 8075 c6 -14 15 -22 20 -17 12 12 -1 42 -18 42 -11 0 -11 -5
-2 -25z"/>
<path d="M15211 8069 c-11 -17 -36 -42 -58 -55 -21 -13 -35 -24 -31 -24 18 0
-17 -62 -43 -76 -16 -8 -29 -22 -29 -32 0 -9 -7 -29 -14 -44 -8 -15 -11 -30
-7 -33 12 -7 21 5 21 29 1 30 21 62 55 88 17 13 30 32 30 42 0 10 9 24 20 30
28 15 85 78 85 94 0 20 -9 14 -29 -19z"/>
<path d="M21323 8055 c0 -22 2 -30 4 -17 2 12 2 30 0 40 -3 9 -5 -1 -4 -23z"/>
<path d="M23674 8064 c9 -8 16 -24 16 -34 0 -10 9 -28 21 -41 l20 -24 -7 24
c-3 13 -7 29 -8 35 -4 21 -31 56 -44 56 -10 0 -10 -4 2 -16z"/>
<path d="M21686 8043 c-6 -14 -5 -15 5 -6 7 7 10 15 7 18 -3 3 -9 -2 -12 -12z"/>
<path d="M17276 8043 c-9 -10 -7 -25 3 -19 5 4 12 0 14 -6 4 -8 6 -7 6 4 1 19
-13 31 -23 21z"/>
<path d="M12896 8024 c5 -18 43 -51 48 -42 1 2 -10 16 -26 32 -21 24 -26 26
-22 10z"/>
<path d="M21322 7921 c-2 -78 -4 -92 -17 -87 -8 3 -15 2 -15 -3 0 -7 42 -24
45 -18 1 1 -2 47 -5 102 l-7 100 -1 -94z"/>
<path d="M12963 7940 c0 -26 8 -42 31 -63 18 -17 32 -24 34 -17 5 15 -10 30
-34 35 -11 2 -21 4 -23 4 -2 1 2 8 9 16 8 9 8 15 2 15 -6 0 -13 10 -15 23 -3
13 -4 8 -4 -13z"/>
<path d="M17347 7938 c8 -44 13 -48 13 -10 0 17 -4 34 -10 37 -6 4 -7 -6 -3
-27z"/>
<path d="M22618 7963 c7 -3 16 -2 19 1 4 3 -2 6 -13 5 -11 0 -14 -3 -6 -6z"/>
<path d="M22668 7963 c7 -3 16 -2 19 1 4 3 -2 6 -13 5 -11 0 -14 -3 -6 -6z"/>
<path d="M22768 7963 c7 -3 16 -2 19 1 4 3 -2 6 -13 5 -11 0 -14 -3 -6 -6z"/>
<path d="M22458 7948 c17 -8 26 -8 34 0 9 9 4 12 -22 11 -33 0 -34 -1 -12 -11z"/>
<path d="M22548 7953 c12 -2 30 -2 40 0 9 3 -1 5 -23 4 -22 0 -30 -2 -17 -4z"/>
<path d="M23731 7950 c0 -8 4 -22 9 -30 12 -18 12 -2 0 25 -6 13 -9 15 -9 5z"/>
<path d="M16370 7931 c14 -5 19 -9 12 -10 -10 -1 -10 -4 0 -15 15 -16 32 -10
22 7 -5 8 -3 8 7 0 19 -18 33 -16 15 2 -8 8 -30 17 -48 20 -29 4 -30 4 -8 -4z"/>
<path d="M19843 7880 c0 -36 2 -50 4 -32 2 17 2 47 0 65 -2 17 -4 3 -4 -33z"/>
<path d="M22198 7912 c-70 -18 -107 -38 -48 -26 19 3 45 8 56 9 22 3 87 35 69
34 -5 0 -40 -8 -77 -17z"/>
<path d="M22935 7907 c17 -8 36 -12 43 -9 18 6 13 8 -33 16 l-40 6 30 -13z"/>
<path d="M11741 7894 c0 -11 3 -14 6 -6 3 7 2 16 -1 19 -3 4 -6 -2 -5 -13z"/>
<path d="M23773 7840 c10 -72 25 -90 20 -23 -4 55 -8 72 -19 83 -7 7 -7 -13
-1 -60z"/>
<path d="M17370 7870 c6 -11 12 -20 14 -20 2 0 2 9 -1 20 -3 11 -9 20 -15 20
-5 0 -4 -9 2 -20z"/>
<path d="M22080 7880 c0 -5 7 -7 15 -4 8 4 15 8 15 10 0 2 -7 4 -15 4 -8 0
-15 -4 -15 -10z"/>
<path d="M15890 7870 c-18 -12 -2 -12 25 0 13 6 15 9 5 9 -8 0 -22 -4 -30 -9z"/>
<path d="M20998 7863 c6 -2 18 -2 25 0 6 3 1 5 -13 5 -14 0 -19 -2 -12 -5z"/>
<path d="M21058 7863 c12 -2 30 -2 40 0 9 3 -1 5 -23 4 -22 0 -30 -2 -17 -4z"/>
<path d="M22033 7853 c-12 -8 -35 -15 -52 -15 -17 -1 -31 -4 -31 -9 0 -4 -13
-11 -28 -17 -17 -6 -29 -17 -29 -27 0 -17 1 -17 13 -1 7 10 39 25 71 35 69 21
99 36 87 44 -5 2 -19 -2 -31 -10z"/>
<path d="M17411 7846 l-24 -14 22 -7 c17 -5 20 -12 15 -28 -3 -12 -3 -19 1
-14 5 4 9 23 10 42 0 19 1 35 0 35 0 -1 -11 -7 -24 -14z"/>
<path d="M20908 7853 c7 -3 16 -2 19 1 4 3 -2 6 -13 5 -11 0 -14 -3 -6 -6z"/>
<path d="M21687 7839 c4 -13 8 -18 11 -10 2 7 -1 18 -6 23 -8 8 -9 4 -5 -13z"/>
<path d="M20847 7843 c-9 -3 -15 -9 -11 -14 3 -5 11 -6 17 -2 6 4 27 6 46 4
19 -1 33 0 31 2 -9 7 -65 14 -83 10z"/>
<path d="M21220 7846 c0 -2 8 -10 18 -17 15 -13 16 -12 3 4 -13 16 -21 21 -21
13z"/>
<path d="M23042 7833 c2 -9 10 -19 18 -21 12 -4 13 -3 3 10 -7 8 -10 18 -6 21
3 4 1 7 -6 7 -7 0 -11 -8 -9 -17z"/>
<path d="M15837 7821 c-4 -17 -3 -21 5 -13 5 5 8 16 6 23 -3 8 -7 3 -11 -10z"/>
<path d="M13070 7791 c0 -12 5 -21 10 -21 6 0 10 6 10 14 0 8 -4 18 -10 21 -5
3 -10 -3 -10 -14z"/>
<path d="M19841 7794 c0 -11 3 -14 6 -6 3 7 2 16 -1 19 -3 4 -6 -2 -5 -13z"/>
<path d="M20719 7793 c-12 -16 -12 -17 1 -7 8 6 22 14 30 17 13 5 12 6 -1 6
-9 1 -23 -7 -30 -16z"/>
<path d="M21692 7743 c-1 -39 -5 -79 -8 -88 -5 -12 -2 -16 12 -13 11 2 21 6
24 9 3 3 26 18 52 33 25 15 49 34 52 42 3 9 12 14 19 11 7 -3 24 1 38 9 17 10
19 13 7 14 -26 0 -71 -19 -98 -43 -37 -33 -71 -50 -81 -40 -4 4 -10 37 -12 73
l-3 65 -2 -72z"/>
<path d="M23115 7765 c20 -27 41 -60 46 -74 5 -13 12 -21 16 -18 7 8 -50 98
-79 123 -11 10 -4 -3 17 -31z"/>
<path d="M14993 7783 c-3 -10 -14 -40 -25 -66 -10 -26 -18 -55 -17 -65 0 -9 9
7 20 37 10 30 23 57 28 60 4 3 11 16 15 29 9 26 -11 31 -21 5z"/>
<path d="M15759 7773 l-24 -28 26 23 c14 12 29 19 34 15 4 -5 5 -2 1 5 -9 16
-9 16 -37 -15z"/>
<path d="M13098 7727 c18 -18 32 -38 32 -45 0 -7 5 -12 10 -12 15 0 12 26 -4
42 -56 53 -87 65 -38 15z"/>
<path d="M12330 7720 c0 -7 8 -14 18 -16 9 -3 26 -23 36 -44 11 -22 29 -46 42
-55 12 -8 25 -28 29 -45 4 -16 17 -38 29 -47 12 -10 25 -26 29 -35 7 -19 22
-24 31 -10 3 5 -8 19 -25 31 -16 12 -27 26 -24 32 4 5 1 8 -6 7 -7 -2 -13 2
-14 7 -1 14 -38 75 -46 75 -4 0 -14 16 -23 34 -17 36 -76 87 -76 66z"/>
<path d="M15702 7701 c-19 -26 -20 -31 -7 -31 9 0 14 4 10 9 -3 6 2 14 11 19
9 5 15 15 13 21 -3 7 -14 -1 -27 -18z"/>
<path d="M23801 7714 c0 -11 3 -14 6 -6 3 7 2 16 -1 19 -3 4 -6 -2 -5 -13z"/>
<path d="M16720 7709 c0 -5 5 -7 10 -4 6 3 10 8 10 11 0 2 -4 4 -10 4 -5 0
-10 -5 -10 -11z"/>
<path d="M17483 7653 c0 -16 2 -30 6 -33 4 -3 12 -21 18 -40 l11 -35 -3 45
c-2 25 -5 46 -6 48 -2 3 -6 19 -8 32 -2 22 -16 8 -18 -17z"/>
<path d="M23802 7645 c0 -16 2 -22 5 -12 2 9 2 23 0 30 -3 6 -5 -1 -5 -18z"/>
<path d="M20520 7650 c-12 -7 -10 -9 7 -7 12 0 19 5 17 9 -6 10 -6 10 -24 -2z"/>
<path d="M23181 7653 c0 -4 4 -17 9 -28 8 -19 9 -19 9 2 1 12 -3 25 -9 28 -5
3 -10 3 -9 -2z"/>
<path d="M13176 7634 c-3 -8 -2 -12 4 -9 6 3 10 -3 10 -14 0 -11 4 -22 8 -25
5 -3 6 8 4 25 -5 34 -17 46 -26 23z"/>
<path d="M14923 7608 c-19 -56 -36 -139 -29 -145 3 -4 6 5 6 18 0 19 2 21 10
9 8 -12 10 -10 11 10 1 14 2 33 1 43 -1 9 2 17 6 17 4 0 8 18 9 40 2 22 1 40
0 40 -2 0 -8 -15 -14 -32z"/>
<path d="M16791 7624 c0 -11 3 -14 6 -6 3 7 2 16 -1 19 -3 4 -6 -2 -5 -13z"/>
<path d="M20485 7620 c-3 -5 -1 -10 4 -10 6 0 11 5 11 10 0 6 -2 10 -4 10 -3
0 -8 -4 -11 -10z"/>
<path d="M15615 7600 c-3 -5 1 -10 10 -10 9 0 13 5 10 10 -3 6 -8 10 -10 10
-2 0 -7 -4 -10 -10z"/>
<path d="M23202 7580 c0 -14 2 -19 5 -12 2 6 2 18 0 25 -3 6 -5 1 -5 -13z"/>
<path d="M13241 7538 c12 -24 24 -45 28 -48 3 -3 12 -17 20 -32 8 -15 20 -29
28 -33 19 -7 -22 66 -43 78 -8 4 -14 19 -14 32 0 14 -9 29 -21 35 -20 11 -20
11 2 -32z"/>
<path d="M15596 7554 c-6 -15 -4 -15 11 -3 10 7 20 15 22 16 2 2 -3 3 -11 3
-9 0 -19 -7 -22 -16z"/>
<path d="M23817 7563 c-9 -8 -7 -160 3 -238 5 -47 7 -27 9 93 0 83 0 152 -2
152 -2 0 -7 -3 -10 -7z"/>
<path d="M16850 7535 c0 -8 4 -15 10 -15 5 0 7 7 4 15 -4 8 -8 15 -10 15 -2 0
-4 -7 -4 -15z"/>
<path d="M23214 7405 c0 -77 2 -107 3 -67 2 40 2 103 0 140 -2 37 -3 4 -3 -73z"/>
<path d="M17521 7514 c0 -11 3 -14 6 -6 3 7 2 16 -1 19 -3 4 -6 -2 -5 -13z"/>
<path d="M15550 7520 c-1 -3 -3 -16 -6 -30 -3 -21 -2 -22 7 -7 6 10 8 23 5 30
-2 7 -5 10 -6 7z"/>
<path d="M17531 7464 c0 -11 3 -14 6 -6 3 7 2 16 -1 19 -3 4 -6 -2 -5 -13z"/>
<path d="M24422 7440 c0 -14 2 -19 5 -12 2 6 2 18 0 25 -3 6 -5 1 -5 -13z"/>
<path d="M12530 7441 c0 -6 4 -11 9 -11 17 0 41 -31 41 -51 0 -11 10 -30 23
-42 27 -26 87 -116 87 -131 0 -6 14 -19 31 -29 18 -10 29 -20 26 -24 -7 -7 20
-63 31 -63 4 0 18 -16 31 -35 13 -20 26 -33 29 -30 3 2 -7 20 -21 38 -14 19
-23 38 -19 42 4 5 1 5 -6 1 -9 -5 -18 5 -29 33 -9 22 -24 43 -34 46 -9 3 -22
18 -27 33 -5 15 -19 37 -31 49 -12 12 -21 26 -21 31 0 5 -7 15 -15 22 -8 7
-12 16 -9 21 3 5 -2 9 -10 9 -8 0 -18 4 -21 10 -3 6 1 7 12 4 17 -5 17 -5 1 6
-10 6 -18 17 -18 25 0 7 -13 23 -30 35 -16 12 -30 17 -30 11z"/>
<path d="M14871 7414 c0 -11 3 -14 6 -6 3 7 2 16 -1 19 -3 4 -6 -2 -5 -13z"/>
<path d="M17540 7399 c0 -11 4 -18 10 -14 5 3 7 12 3 20 -7 21 -13 19 -13 -6z"/>
<path d="M13341 7403 c0 -4 4 -17 9 -28 8 -19 9 -19 9 2 1 12 -3 25 -9 28 -5
3 -10 3 -9 -2z"/>
<path d="M22400 7399 c-22 -7 -20 -8 10 -5 19 2 42 0 51 -5 11 -5 16 -3 16 7
0 16 -36 17 -77 3z"/>
<path d="M22535 7394 c-16 -7 -24 -13 -17 -14 7 0 21 4 31 10 12 6 29 5 50 -3
26 -9 34 -9 47 5 15 15 13 16 -32 16 -27 0 -62 -6 -79 -14z"/>
<path d="M22690 7396 c0 -2 7 -7 16 -10 8 -3 12 -2 9 4 -6 10 -25 14 -25 6z"/>
<path d="M20392 7360 c0 -14 2 -19 5 -12 2 6 2 18 0 25 -3 6 -5 1 -5 -13z"/>
<path d="M24422 7360 c0 -14 2 -19 5 -12 2 6 2 18 0 25 -3 6 -5 1 -5 -13z"/>
<path d="M14911 7344 c0 -11 3 -14 6 -6 3 7 2 16 -1 19 -3 4 -6 -2 -5 -13z"/>
<path d="M22220 7351 c0 -4 11 -6 25 -3 14 2 25 6 25 8 0 2 -11 4 -25 4 -14 0
-25 -4 -25 -9z"/>
<path d="M22308 7353 c6 -2 18 -2 25 0 6 3 1 5 -13 5 -14 0 -19 -2 -12 -5z"/>
<path d="M22377 7353 c18 -2 50 -2 70 0 21 2 7 4 -32 4 -38 0 -55 -2 -38 -4z"/>
<path d="M22140 7334 c8 -9 70 -8 70 1 0 2 -18 5 -39 7 -28 2 -37 0 -31 -8z"/>
<path d="M13387 7322 c12 -12 24 -30 28 -42 3 -11 11 -20 17 -20 6 0 6 6 -2
15 -7 8 -9 15 -5 15 12 0 -16 30 -39 42 -20 10 -20 10 1 -10z"/>
<path d="M17550 7295 c0 -27 2 -46 5 -43 8 8 9 77 2 85 -4 3 -7 -15 -7 -42z"/>
<path d="M19845 6738 c-3 -310 -5 -646 -3 -748 3 -169 5 -185 21 -184 9 0 132
1 272 2 l255 2 -2 63 -2 62 -3 -57 -4 -58 -212 1 c-209 1 -277 5 -275 18 2 13
-14 41 -22 36 -16 -10 -22 320 -15 862 4 310 5 563 2 563 -2 0 -8 -253 -12
-562z"/>
<path d="M20394 7190 c0 -63 1 -89 3 -57 2 31 2 83 0 115 -2 31 -3 5 -3 -58z"/>
<path d="M24424 7200 c0 -58 1 -81 3 -52 2 28 2 76 0 105 -2 28 -3 5 -3 -53z"/>
<path d="M14842 7265 c0 -16 2 -22 5 -12 2 9 2 23 0 30 -3 6 -5 -1 -5 -18z"/>
<path d="M21949 7267 c5 -5 19 -7 32 -5 20 3 19 5 -9 9 -20 3 -29 2 -23 -4z"/>
<path d="M23088 7273 c7 -3 16 -2 19 1 4 3 -2 6 -13 5 -11 0 -14 -3 -6 -6z"/>
<path d="M16962 7240 c0 -19 2 -27 5 -17 2 9 2 25 0 35 -3 9 -5 1 -5 -18z"/>
<path d="M21921 7244 c0 -11 3 -14 6 -6 3 7 2 16 -1 19 -3 4 -6 -2 -5 -13z"/>
<path d="M13443 7234 c0 -8 6 -14 14 -14 7 0 13 4 13 9 0 5 -6 11 -13 14 -8 3
-14 -1 -14 -9z"/>
<path d="M17561 7061 c-1 -96 1 -172 4 -169 9 8 12 279 4 313 -4 17 -7 -48 -8
-144z"/>
<path d="M13485 7183 c11 -18 23 -33 28 -33 11 0 -8 34 -29 51 -16 12 -16 10
1 -18z"/>
<path d="M21850 7206 c0 -2 7 -7 16 -10 8 -3 12 -2 9 4 -6 10 -25 14 -25 6z"/>
<path d="M21890 7200 c0 -6 7 -10 15 -10 8 0 15 2 15 4 0 2 -7 6 -15 10 -8 3
-15 1 -15 -4z"/>
<path d="M21827 7193 c-4 -3 -7 -18 -6 -32 1 -26 1 -25 10 3 9 31 7 41 -4 29z"/>
<path d="M14833 7130 c0 -36 2 -50 4 -32 2 17 2 47 0 65 -2 17 -4 3 -4 -33z"/>
<path d="M16974 7085 c0 -60 1 -84 3 -52 2 32 2 81 0 110 -2 29 -3 3 -3 -58z"/>
<path d="M21740 7111 c-13 -25 -13 -41 0 -41 5 0 7 6 5 13 -7 17 6 34 30 40
18 4 18 5 -2 6 -13 0 -27 -7 -33 -18z"/>
<path d="M13537 7100 c3 -11 9 -20 15 -20 5 0 4 9 -2 20 -6 11 -12 20 -14 20
-2 0 -2 -9 1 -20z"/>
<path d="M16936 7095 c-4 -14 -2 -33 3 -43 8 -13 10 -8 11 26 0 48 -5 54 -14
17z"/>
<path d="M13570 7061 c0 -6 4 -13 10 -16 6 -3 7 1 4 9 -7 18 -14 21 -14 7z"/>
<path d="M14831 7044 c0 -11 3 -14 6 -6 3 7 2 16 -1 19 -3 4 -6 -2 -5 -13z"/>
<path d="M20394 6940 c0 -69 1 -97 3 -62 2 34 2 90 0 125 -2 34 -3 6 -3 -63z"/>
<path d="M21670 7040 c-8 -5 -10 -10 -5 -10 6 0 17 5 25 10 8 5 11 10 5 10 -5
0 -17 -5 -25 -10z"/>
<path d="M15493 6990 c0 -25 2 -35 4 -22 2 12 2 32 0 45 -2 12 -4 2 -4 -23z"/>
<path d="M12840 7002 c0 -14 38 -54 48 -50 5 1 -3 16 -19 31 -16 16 -29 24
-29 19z"/>
<path d="M11741 6964 c0 -11 3 -14 6 -6 3 7 2 16 -1 19 -3 4 -6 -2 -5 -13z"/>
<path d="M14875 6970 c-15 -25 -16 -136 -1 -170 15 -34 15 -33 16 73 0 103 -2
118 -15 97z"/>
<path d="M22508 6973 c12 -2 30 -2 40 0 9 3 -1 5 -23 4 -22 0 -30 -2 -17 -4z"/>
<path d="M21608 6934 c-10 -19 -14 -34 -10 -34 8 0 36 59 31 65 -2 1 -12 -12
-21 -31z"/>
<path d="M22418 6953 c7 -3 16 -2 19 1 4 3 -2 6 -13 5 -11 0 -14 -3 -6 -6z"/>
<path d="M22583 6943 c9 -2 23 -2 30 0 6 3 -1 5 -18 5 -16 0 -22 -2 -12 -5z"/>
<path d="M22871 6946 c9 -9 110 -23 114 -16 2 4 -16 10 -42 14 -53 7 -78 8
-72 2z"/>
<path d="M12900 6928 c0 -7 27 -49 60 -93 33 -44 60 -84 60 -88 0 -4 5 -13 10
-20 42 -49 54 -65 67 -90 8 -16 26 -42 40 -58 15 -16 33 -40 42 -53 65 -96
110 -155 111 -143 0 4 -31 49 -68 100 -68 92 -153 213 -204 290 -41 62 -61 89
-80 108 -9 10 -14 20 -10 23 3 3 0 6 -7 6 -7 0 -10 4 -6 9 3 5 1 12 -5 16 -5
3 -10 0 -10 -7z"/>
<path d="M16931 6933 c0 -4 4 -17 9 -28 8 -19 9 -19 9 2 1 12 -3 25 -9 28 -5
3 -10 3 -9 -2z"/>
<path d="M16962 6920 c0 -14 2 -19 5 -12 2 6 2 18 0 25 -3 6 -5 1 -5 -13z"/>
<path d="M14837 6909 c4 -13 8 -18 11 -10 2 7 -1 18 -6 23 -8 8 -9 4 -5 -13z"/>
<path d="M22311 6921 c-7 -5 -9 -11 -4 -14 5 -3 15 -2 22 2 7 5 9 11 4 14 -5
3 -15 2 -22 -2z"/>
<path d="M23063 6875 c0 -7 11 -15 24 -18 13 -2 23 -3 23 -2 0 2 -10 10 -23
18 -19 12 -24 12 -24 2z"/>
<path d="M17553 6845 c0 -22 2 -30 4 -17 2 12 2 30 0 40 -3 9 -5 -1 -4 -23z"/>
<path d="M22261 6859 c-1 -9 -8 -19 -16 -23 -8 -3 -15 -11 -15 -18 0 -7 9 -4
21 9 12 11 19 27 16 34 -4 10 -6 9 -6 -2z"/>
<path d="M15519 6837 c6 -8 7 -18 3 -22 -4 -5 -1 -5 6 -1 10 6 10 11 1 22 -6
8 -14 14 -16 14 -3 0 0 -6 6 -13z"/>
<path d="M16916 6823 c-6 -14 -5 -15 5 -6 7 7 10 15 7 18 -3 3 -9 -2 -12 -12z"/>
<path d="M21551 6824 c0 -11 3 -14 6 -6 3 7 2 16 -1 19 -3 4 -6 -2 -5 -13z"/>
<path d="M14907 6824 c-11 -19 -2 -193 11 -206 15 -15 16 2 2 53 -6 21 -7 54
-2 80 9 44 1 92 -11 73z"/>
<path d="M23187 6795 c-4 -8 -2 -17 3 -20 6 -4 10 3 10 14 0 25 -6 27 -13 6z"/>
<path d="M17540 6779 c0 -11 4 -18 10 -14 5 3 7 12 3 20 -7 21 -13 19 -13 -6z"/>
<path d="M15527 6770 c3 -11 9 -23 14 -26 5 -3 9 -16 9 -29 0 -28 15 -41 24
-20 3 8 1 15 -3 15 -5 0 -12 18 -16 40 -4 23 -12 40 -20 40 -8 0 -11 -7 -8
-20z"/>
<path d="M22175 6769 c-10 -30 -2 -32 12 -3 6 13 7 24 3 24 -5 0 -12 -9 -15
-21z"/>
<path d="M11082 6700 c0 -19 2 -27 5 -17 2 9 2 25 0 35 -3 9 -5 1 -5 -18z"/>
<path d="M16856 6692 c-3 -5 1 -9 9 -9 8 0 15 4 15 9 0 4 -4 8 -9 8 -6 0 -12
-4 -15 -8z"/>
<path d="M23210 6670 c-13 -8 -13 -13 1 -39 10 -16 14 -33 10 -38 -15 -17 -33
-90 -28 -118 4 -27 4 -27 6 7 0 20 6 40 11 43 6 4 8 10 5 15 -3 5 -1 11 5 15
5 3 10 1 10 -6 0 -7 3 -9 6 -6 4 4 1 13 -6 22 -10 11 -10 18 -1 29 8 9 8 16 2
20 -5 4 -8 20 -6 36 2 17 3 30 2 30 -1 0 -9 -5 -17 -10z"/>
<path d="M15600 6665 c0 -7 30 -13 34 -7 3 4 -4 9 -15 9 -10 1 -19 0 -19 -2z"/>
<path d="M11083 6600 c0 -36 2 -50 4 -32 2 17 2 47 0 65 -2 17 -4 3 -4 -33z"/>
<path d="M16836 6625 c-9 -26 -7 -32 5 -12 6 10 9 21 6 23 -2 3 -7 -2 -11 -11z"/>
<path d="M15616 6615 c4 -8 10 -12 15 -9 11 6 2 24 -11 24 -5 0 -7 -7 -4 -15z"/>
<path d="M21523 6545 c0 -33 2 -45 4 -27 2 18 2 45 0 60 -2 15 -4 0 -4 -33z"/>
<path d="M15630 6580 c8 -5 20 -10 25 -10 6 0 3 5 -5 10 -8 5 -19 10 -25 10
-5 0 -3 -5 5 -10z"/>
<path d="M17481 6559 c-6 -18 -9 -34 -7 -36 2 -2 9 10 15 28 6 18 9 34 7 36
-2 2 -9 -10 -15 -28z"/>
<path d="M18775 6560 c-12 -4 -27 -16 -35 -26 -12 -16 -12 -17 0 -6 18 15 34
16 24 0 -4 -7 -3 -8 5 -4 6 4 9 11 6 16 -8 12 58 23 87 15 18 -5 20 -4 8 4
-18 13 -66 13 -95 1z"/>
<path d="M14965 6510 c1 -11 4 -23 8 -26 4 -4 7 -16 7 -26 0 -10 5 -18 11 -18
6 0 8 8 5 18 -3 9 -8 29 -12 45 -7 31 -21 37 -19 7z"/>
<path d="M14404 6410 c0 -58 1 -81 3 -52 2 28 2 76 0 105 -2 28 -3 5 -3 -53z"/>
<path d="M22157 6503 c-4 -3 -7 -11 -7 -17 0 -6 5 -5 12 2 6 6 9 14 7 17 -3 3
-9 2 -12 -2z"/>
<path d="M15800 6434 c0 -17 27 -37 42 -31 8 4 7 6 -4 6 -9 1 -22 9 -27 19 -6
9 -11 12 -11 6z"/>
<path d="M15031 6394 c0 -11 3 -14 6 -6 3 7 2 16 -1 19 -3 4 -6 -2 -5 -13z"/>
<path d="M16610 6400 c-9 -6 -10 -10 -3 -10 6 0 15 5 18 10 8 12 4 12 -15 0z"/>
<path d="M17406 6394 c-5 -14 -4 -15 9 -4 17 14 19 20 6 20 -5 0 -12 -7 -15
-16z"/>
<path d="M23083 6375 c-9 -24 1 -27 15 -5 8 13 8 20 2 20 -6 0 -13 -7 -17 -15z"/>
<path d="M15956 6365 c-11 -8 -15 -15 -9 -15 6 0 16 7 23 15 16 19 11 19 -14
0z"/>
<path d="M13298 6355 c18 -32 70 -90 76 -85 2 3 -16 28 -41 55 -25 28 -41 41
-35 30z"/>
<path d="M18702 6345 c0 -16 2 -22 5 -12 2 9 2 23 0 30 -3 6 -5 -1 -5 -18z"/>
<path d="M16478 6353 c7 -3 16 -2 19 1 4 3 -2 6 -13 5 -11 0 -14 -3 -6 -6z"/>
<path d="M15060 6326 c0 -18 6 -19 35 -6 11 5 15 9 8 9 -6 1 -18 4 -27 7 -11
4 -16 1 -16 -10z"/>
<path d="M15948 6323 c6 -2 18 -2 25 0 6 3 1 5 -13 5 -14 0 -19 -2 -12 -5z"/>
<path d="M16088 6313 c6 -2 18 -2 25 0 6 3 1 5 -13 5 -14 0 -19 -2 -12 -5z"/>
<path d="M23003 6313 c9 -2 23 -2 30 0 6 3 -1 5 -18 5 -16 0 -22 -2 -12 -5z"/>
<path d="M22958 6303 c7 -3 16 -2 19 1 4 3 -2 6 -13 5 -11 0 -14 -3 -6 -6z"/>
<path d="M17330 6279 c-7 -11 -9 -23 -6 -27 3 -3 6 0 6 6 0 6 7 18 16 26 8 9
11 16 5 16 -6 0 -15 -9 -21 -21z"/>
<path d="M15115 6281 c-3 -5 -1 -12 5 -16 5 -3 10 1 10 9 0 18 -6 21 -15 7z"/>
<path d="M18702 6250 c0 -14 2 -19 5 -12 2 6 2 18 0 25 -3 6 -5 1 -5 -13z"/>
<path d="M24426 6233 c-9 -57 -7 -111 4 -118 6 -4 10 23 10 74 0 45 -2 81 -4
81 -2 0 -6 -17 -10 -37z"/>
<path d="M11082 6038 l-2 -228 138 -1 c75 0 155 -1 177 -1 22 0 112 0 200 1
l161 1 -1 33 c-1 17 -3 77 -3 131 -1 55 -4 97 -6 95 -3 -3 -6 -55 -7 -117 -1
-99 -4 -114 -20 -123 -12 -6 -130 -9 -319 -8 -165 2 -301 3 -301 3 -1 1 -5
100 -8 221 l-7 220 -2 -227z"/>
<path d="M13380 6249 c0 -8 6 -23 13 -33 13 -18 14 -18 21 0 4 10 4 15 0 11
-5 -4 -14 3 -21 15 -8 16 -12 18 -13 7z"/>
<path d="M15120 6234 c0 -16 9 -18 28 -5 10 6 9 10 -7 14 -14 3 -21 0 -21 -9z"/>
<path d="M21571 6234 c0 -11 3 -14 6 -6 3 7 2 16 -1 19 -3 4 -6 -2 -5 -13z"/>
<path d="M22648 6223 c6 -2 18 -2 25 0 6 3 1 5 -13 5 -14 0 -19 -2 -12 -5z"/>
<path d="M22707 6223 c-13 -12 -7 -23 12 -23 11 0 22 4 25 9 4 5 -4 7 -16 3
-14 -3 -19 -2 -14 6 8 13 3 16 -7 5z"/>
<path d="M18692 6190 c0 -19 2 -27 5 -17 2 9 2 25 0 35 -3 9 -5 1 -5 -18z"/>
<path d="M22520 6208 c0 -4 7 -8 15 -8 8 0 15 4 15 8 0 5 -7 9 -15 9 -8 0 -15
-4 -15 -9z"/>
<path d="M23838 6030 c-3 -184 -4 -193 -23 -198 -11 -3 -137 -6 -280 -6 l-260
-1 -3 50 c-5 73 -17 75 -18 2 0 -34 3 -64 7 -67 4 -3 140 -4 302 -2 l295 3 -4
201 c-2 111 -6 203 -9 206 -2 3 -6 -82 -7 -188z"/>
<path d="M22638 6193 c6 -2 18 -2 25 0 6 3 1 5 -13 5 -14 0 -19 -2 -12 -5z"/>
<path d="M21620 6175 c0 -8 4 -15 10 -15 5 0 7 7 4 15 -4 8 -8 15 -10 15 -2 0
-4 -7 -4 -15z"/>
<path d="M11743 6140 c0 -25 2 -35 4 -22 2 12 2 32 0 45 -2 12 -4 2 -4 -23z"/>
<path d="M15195 6171 c-3 -5 2 -11 10 -15 8 -3 17 -1 20 3 3 5 -2 11 -10 15
-8 3 -17 1 -20 -3z"/>
<path d="M13440 6152 c0 -11 27 -42 37 -42 3 0 -2 10 -13 23 -10 12 -20 24
-21 26 -2 2 -3 -1 -3 -7z"/>
<path d="M14393 6080 c0 -47 2 -66 4 -42 2 23 2 61 0 85 -2 23 -4 4 -4 -43z"/>
<path d="M21630 6140 c0 -5 9 -18 21 -28 11 -9 30 -34 41 -55 10 -22 22 -37
24 -34 3 3 -2 18 -12 34 -27 42 -74 95 -74 83z"/>
<path d="M18666 6114 c-4 -9 -4 -19 -1 -22 2 -3 7 3 11 12 4 9 4 19 1 22 -2 3
-7 -3 -11 -12z"/>
<path d="M15270 6090 c0 -6 7 -10 15 -10 8 0 15 2 15 4 0 2 -7 6 -15 10 -8 3
-15 1 -15 -4z"/>
<path d="M24433 6050 c0 -30 2 -43 4 -27 2 15 2 39 0 55 -2 15 -4 2 -4 -28z"/>
<path d="M13500 6061 c0 -11 4 -22 9 -25 4 -3 6 6 3 19 -5 30 -12 33 -12 6z"/>
<path d="M17125 6069 c-4 -6 -5 -12 -2 -15 2 -3 7 2 10 11 7 17 1 20 -8 4z"/>
<path d="M13553 6001 c0 -11 5 -18 9 -15 4 3 5 11 1 19 -7 21 -12 19 -10 -4z"/>
<path d="M21721 6007 c2 -1 13 -9 24 -17 19 -14 19 -14 6 3 -7 9 -18 17 -24
17 -6 0 -8 -1 -6 -3z"/>
<path d="M13571 5959 c-1 -9 7 -23 17 -30 15 -12 16 -12 6 1 -6 8 -14 22 -17
30 -5 13 -6 12 -6 -1z"/>
<path d="M15466 5947 c3 -10 9 -15 12 -12 3 3 0 11 -7 18 -10 9 -11 8 -5 -6z"/>
<path d="M21800 5935 c0 -16 22 -35 41 -35 10 0 20 -6 22 -12 4 -10 6 -10 6 0
1 7 -11 18 -26 25 -16 6 -31 16 -35 22 -5 7 -8 7 -8 0z"/>
<path d="M16910 5909 c0 -5 5 -7 10 -4 6 3 10 8 10 11 0 2 -4 4 -10 4 -5 0
-10 -5 -10 -11z"/>
<path d="M18573 5898 c-15 -20 -25 -38 -20 -38 3 0 12 11 21 25 17 26 16 35
-1 13z"/>
<path d="M13636 5865 c4 -16 11 -35 15 -41 11 -14 469 -26 626 -17 109 6 111
6 116 31 l5 26 -17 -22 c-16 -22 -17 -22 -360 -21 -189 0 -350 3 -357 6 -8 3
-14 13 -14 22 0 9 -5 23 -10 31 -8 11 -9 7 -4 -15z"/>
<path d="M18796 5839 c-22 -45 -20 -50 5 -11 12 18 19 35 16 38 -3 3 -12 -9
-21 -27z"/>
<path d="M22986 5847 c3 -10 9 -15 12 -12 3 3 0 11 -7 18 -10 9 -11 8 -5 -6z"/>
<path d="M18536 5833 c-6 -14 -5 -15 5 -6 7 7 10 15 7 18 -3 3 -9 -2 -12 -12z"/>
<path d="M21925 5840 c11 -5 29 -8 40 -8 16 0 15 2 -5 8 -34 11 -60 11 -35 0z"/>
<path d="M24438 5725 c-11 -169 -9 -305 3 -276 5 14 8 102 7 205 -3 179 -3
180 -10 71z"/>
<path d="M15810 5801 c34 -4 50 -9 42 -14 -17 -12 -5 -27 21 -26 20 1 20 2 -3
9 -23 7 -23 8 -3 9 12 1 24 5 27 10 7 11 -45 21 -98 19 -37 -1 -36 -2 14 -7z"/>
<path d="M15910 5790 c0 -5 7 -10 16 -10 8 0 12 5 9 10 -3 6 -10 10 -16 10 -5
0 -9 -4 -9 -10z"/>
<path d="M16648 5793 c7 -3 16 -2 19 1 4 3 -2 6 -13 5 -11 0 -14 -3 -6 -6z"/>
<path d="M22058 5793 c6 -2 18 -2 25 0 6 3 1 5 -13 5 -14 0 -19 -2 -12 -5z"/>
<path d="M16545 5780 c-18 -8 -18 -9 -2 -9 10 -1 15 -5 12 -11 -3 -5 0 -7 9
-4 8 3 12 12 9 20 -3 8 -6 14 -7 13 0 0 -10 -4 -21 -9z"/>
<path d="M18762 5778 c-7 -7 -12 -15 -12 -20 0 -4 -13 -30 -30 -58 -31 -52
-41 -80 -16 -45 21 31 78 135 74 135 -2 0 -9 -5 -16 -12z"/>
<path d="M22600 5763 c-41 -2 -79 -9 -85 -14 -13 -13 141 -3 164 11 9 5 12 9
6 8 -5 -1 -44 -4 -85 -5z"/>
<path d="M15918 5753 c7 -3 16 -2 19 1 4 3 -2 6 -13 5 -11 0 -14 -3 -6 -6z"/>
<path d="M18484 5748 c-4 -7 -14 -23 -22 -35 -9 -15 -10 -23 -3 -23 6 0 11 5
11 12 0 6 7 20 17 30 9 10 14 21 11 24 -3 3 -9 -1 -14 -8z"/>
<path d="M22252 5754 c8 -7 199 -6 206 1 3 3 -43 5 -103 5 -60 0 -106 -3 -103
-6z"/>
<path d="M25043 5690 c0 -41 2 -58 4 -37 2 20 2 54 0 75 -2 20 -4 3 -4 -38z"/>
<path d="M16458 5743 c6 -2 18 -2 25 0 6 3 1 5 -13 5 -14 0 -19 -2 -12 -5z"/>
<path d="M18980 5732 c6 -13 14 -21 18 -18 3 4 -2 14 -12 24 -18 16 -18 16 -6
-6z"/>
<path d="M16108 5733 c6 -2 18 -2 25 0 6 3 1 5 -13 5 -14 0 -19 -2 -12 -5z"/>
<path d="M19006 5688 c26 -44 99 -130 127 -149 l32 -22 -34 34 c-18 18 -54 60
-79 91 -42 54 -63 75 -46 46z"/>
<path d="M18437 5673 c-4 -3 -7 -11 -7 -17 0 -6 5 -5 12 2 6 6 9 14 7 17 -3 3
-9 2 -12 -2z"/>
<path d="M18396 5608 l-18 -33 21 25 c18 22 26 40 18 40 -1 0 -11 -15 -21 -32z"/>
<path d="M18661 5603 c-10 -26 -10 -27 4 -9 8 11 15 23 15 28 0 15 -7 8 -19
-19z"/>
<path d="M25041 5524 c0 -45 -3 -110 -6 -145 l-5 -64 14 75 c8 49 11 99 6 145
l-7 70 -2 -81z"/>
<path d="M19402 5565 c0 -16 2 -22 5 -12 2 9 2 23 0 30 -3 6 -5 -1 -5 -18z"/>
<path d="M18361 5556 c-7 -8 -8 -17 -3 -20 6 -3 13 1 16 10 9 23 2 28 -13 10z"/>
<path d="M18619 5533 c-13 -16 -12 -17 4 -4 9 7 17 15 17 17 0 8 -8 3 -21 -13z"/>
<path d="M18326 5501 c-23 -43 -20 -62 14 -109 28 -39 33 -42 78 -42 60 0 89
8 96 26 5 12 1 12 -24 -1 -31 -16 -82 -20 -94 -7 -4 4 -12 8 -17 8 -5 1 -13 2
-17 3 -26 4 -40 87 -21 123 6 11 8 22 6 25 -3 3 -13 -9 -21 -26z"/>
<path d="M19176 5508 c3 -5 10 -6 15 -3 13 9 11 12 -6 12 -8 0 -12 -4 -9 -9z"/>
<path d="M18585 5484 c-9 -15 -12 -23 -6 -20 11 7 35 46 28 46 -3 0 -12 -12
-22 -26z"/>
<path d="M19235 5479 c42 -19 90 -25 99 -11 3 5 -8 7 -23 4 -15 -2 -45 3 -65
12 -53 22 -60 19 -11 -5z"/>
<path d="M24406 5398 c-10 -46 -12 -98 -4 -98 4 0 8 20 8 44 0 27 6 51 16 60
14 14 14 16 0 16 -9 0 -18 -10 -20 -22z"/>
<path d="M24325 5282 c-6 -4 -12 -20 -13 -36 -2 -34 6 -31 11 5 3 17 12 26 33
30 27 6 27 7 4 8 -14 0 -30 -3 -35 -7z"/>
<path d="M24991 5199 c-7 -22 -11 -43 -8 -45 2 -2 9 14 16 37 7 22 11 43 8 45
-2 2 -9 -14 -16 -37z"/>
<path d="M23807 5206 c-8 -8 -10 -34 -7 -82 4 -56 5 -61 7 -24 6 82 9 88 51
92 l37 3 -38 12 c-29 9 -40 8 -50 -1z"/>
<path d="M23925 5189 c-4 -6 -5 -12 -2 -15 2 -3 7 2 10 11 7 17 1 20 -8 4z"/>
<path d="M24200 5183 c0 -10 4 -14 8 -8 4 6 11 13 16 18 5 4 2 7 -7 7 -10 0
-17 -8 -17 -17z"/>
<path d="M24957 5109 c-18 -33 -19 -43 -1 -31 10 6 29 62 22 62 -2 0 -11 -14
-21 -31z"/>
<path d="M24910 5003 c-11 -27 -24 -56 -30 -65 -13 -23 -13 -28 3 -22 7 2 13
12 14 22 1 9 11 38 22 65 11 26 18 47 15 47 -2 0 -14 -21 -24 -47z"/>
<path d="M24823 4851 c-2 -10 -15 -24 -29 -31 -13 -7 -21 -17 -18 -21 7 -11
57 35 60 55 3 22 -7 20 -13 -3z"/>
<path d="M23810 4740 c-3 -30 -4 -65 -2 -76 4 -25 43 -46 62 -34 9 6 4 9 -16
12 -29 3 -29 4 -34 78 l-5 75 -5 -55z"/>
<path d="M24715 4749 c-4 -6 -5 -12 -2 -15 2 -3 7 2 10 11 7 17 1 20 -8 4z"/>
<path d="M24665 4733 c-11 -3 -24 -9 -29 -14 -16 -14 16 -10 44 6 25 14 21 17
-15 8z"/>
<path d="M24426 4641 c-4 -5 12 -7 36 -4 57 8 61 13 10 13 -22 0 -43 -4 -46
-9z"/>
<path d="M24308 4603 c7 -3 16 -2 19 1 4 3 -2 6 -13 5 -11 0 -14 -3 -6 -6z"/>
</g>
</svg>
